<svg width="1000" height="1000" viewBox="0 0 1000 1000" fill="none" xmlns="http://www.w3.org/2000/svg">
<g clip-path="url(#clip0_2807_22839)">
<path d="M942.58 50.0041H942.733L942.891 50.0009C945.308 49.95 947.307 51.8694 947.36 54.2851C947.36 54.3453 947.36 54.4104 947.36 54.4753L947.354 54.628V54.7807V942.587C947.354 945.221 945.22 947.362 942.58 947.362H54.7747C52.1378 947.362 50 945.221 50 942.587V54.7807C50 52.141 52.1387 50.0041 54.7747 50.0041H942.58Z" fill="#121417" stroke="#121417" stroke-width="586.51" stroke-linecap="round"/>
<path d="M406.221 500.151C401.405 500.893 396.928 503.078 393.38 506.419C389.833 509.76 387.383 514.098 386.355 518.861L373.847 572.889H372.585C370.699 572.889 368.832 573.262 367.09 573.987C365.349 574.712 363.768 575.774 362.44 577.113C361.111 578.452 360.06 580.04 359.348 581.786C358.636 583.533 358.276 585.403 358.29 587.289V632.908C358.249 636.481 359.558 639.938 361.955 642.588C364.352 645.238 367.66 646.886 371.219 647.203V692.507C371.205 693.62 371.412 694.725 371.828 695.757C372.245 696.789 372.862 697.729 373.644 698.521C374.427 699.313 375.358 699.942 376.385 700.371C377.412 700.8 378.515 701.021 379.628 701.021H398.022C400.281 701.021 402.446 700.124 404.043 698.527C405.64 696.93 406.537 694.765 406.537 692.507V647.308H543.813V692.507C543.813 694.765 544.71 696.93 546.307 698.527C547.904 700.124 550.069 701.021 552.327 701.021H570.617C572.875 701.021 575.041 700.124 576.637 698.527C578.234 696.93 579.131 694.765 579.131 692.507V647.308C581.008 647.295 582.864 646.911 584.594 646.18C586.323 645.449 587.891 644.384 589.209 643.047C590.526 641.71 591.568 640.126 592.273 638.387C592.979 636.647 593.335 634.785 593.321 632.908V587.71C593.391 585.815 593.084 583.925 592.417 582.15C591.749 580.376 590.736 578.751 589.435 577.372C588.134 575.993 586.571 574.886 584.838 574.116C583.106 573.347 581.237 572.929 579.341 572.889L567.253 520.333C566.385 515.339 563.97 510.744 560.349 507.198C556.727 503.652 552.083 501.334 547.072 500.572H406.221V500.151ZM410.005 516.969H540.555C542.233 517.421 543.76 518.311 544.979 519.549C546.199 520.787 547.066 522.327 547.492 524.012V524.747L558.003 565.426C558.063 565.809 558.063 566.199 558.003 566.582C558.004 567.447 557.832 568.303 557.497 569.101C557.163 569.898 556.674 570.621 556.058 571.228C555.441 571.834 554.71 572.312 553.908 572.634C553.105 572.955 552.246 573.113 551.381 573.099H398.653C396.925 573.099 395.267 572.413 394.045 571.19C392.823 569.968 392.136 568.311 392.136 566.582C392.136 566.582 392.136 565.741 392.136 565.426L402.647 524.747V523.486C403.134 521.924 404.004 520.508 405.18 519.369C406.355 518.231 407.797 517.406 409.375 516.969H410.005ZM388.983 597.59C391.586 597.569 394.136 598.322 396.311 599.753C398.485 601.184 400.186 603.229 401.196 605.628C402.207 608.027 402.482 610.672 401.987 613.228C401.492 615.783 400.249 618.134 398.416 619.982C396.583 621.83 394.242 623.092 391.69 623.608C389.139 624.123 386.491 623.869 384.084 622.878C381.677 621.887 379.619 620.203 378.171 618.04C376.722 615.877 375.949 613.332 375.949 610.729C375.949 607.263 377.319 603.937 379.76 601.476C382.201 599.015 385.516 597.618 388.983 597.59ZM561.157 597.59C563.76 597.569 566.31 598.322 568.485 599.753C570.659 601.184 572.36 603.229 573.37 605.628C574.381 608.027 574.656 610.672 574.161 613.228C573.666 615.783 572.423 618.134 570.59 619.982C568.757 621.83 566.416 623.092 563.864 623.608C561.313 624.123 558.665 623.869 556.258 622.878C553.851 621.887 551.793 620.203 550.345 618.04C548.896 615.877 548.123 613.332 548.123 610.729C548.123 607.263 549.493 603.937 551.934 601.476C554.375 599.015 557.69 597.618 561.157 597.59Z" fill="#3470FF"/>
<path d="M471.809 500.992C483.13 500.992 492.306 491.815 492.306 480.495C492.306 469.175 483.13 459.998 471.809 459.998C460.489 459.998 451.312 469.175 451.312 480.495C451.312 491.815 460.489 500.992 471.809 500.992Z" fill="#3470FF"/>
<path d="M471.809 458.421C483.13 458.421 492.306 449.244 492.306 437.924C492.306 426.604 483.13 417.427 471.809 417.427C460.489 417.427 451.312 426.604 451.312 437.924C451.312 449.244 460.489 458.421 471.809 458.421Z" fill="#3470FF"/>
<path d="M471.809 415.956C483.13 415.956 492.306 406.779 492.306 395.459C492.306 384.139 483.13 374.962 471.809 374.962C460.489 374.962 451.312 384.139 451.312 395.459C451.312 406.779 460.489 415.956 471.809 415.956Z" fill="#3470FF"/>
<path d="M471.813 284.775C468.029 285.131 464.353 286.229 460.995 288.007C457.636 289.785 454.661 292.208 452.24 295.137C449.819 298.066 447.999 301.443 446.884 305.076C445.77 308.709 445.383 312.526 445.745 316.309V339.118C445.383 342.901 445.77 346.718 446.884 350.351C447.999 353.984 449.819 357.361 452.24 360.29C454.661 363.219 457.636 365.642 460.995 367.42C464.353 369.198 468.029 370.296 471.813 370.652C479.443 369.906 486.467 366.171 491.352 360.263C496.236 354.354 498.584 346.752 497.881 339.118V315.994C498.524 308.405 496.147 300.87 491.266 295.024C486.385 289.179 479.394 285.496 471.813 284.775ZM470.446 299.596H473.074C477.384 299.596 480.852 304.852 480.852 311.369V343.848C480.852 350.365 477.384 355.621 473.074 355.621H470.446C466.137 355.621 462.668 350.365 462.668 343.848V311.158C462.668 304.641 466.137 299.596 470.446 299.596Z" fill="#3470FF"/>
<path d="M486.001 280.99C486.001 275.524 491.993 272.371 495.987 267.956C498.544 264.852 501.356 261.969 504.396 259.337C505.87 258.396 507.213 257.265 508.39 255.973C511.341 253.239 514.504 250.743 517.85 248.51C521.529 246.092 527.205 241.888 530.464 239.26C537.36 233.506 545.04 228.764 553.273 225.175C555.198 224.565 557.009 223.641 558.634 222.442C561.087 220.9 563.79 219.797 566.622 219.184C569.439 218.323 572.126 217.085 574.611 215.505C577.734 213.826 581.105 212.655 584.597 212.036C588.976 211.098 593.24 209.688 597.315 207.832C600.229 206.362 603.413 205.504 606.67 205.309C612.346 205.309 613.292 204.678 617.181 198.687C619.389 194.798 619.809 191.329 619.809 177.664C619.809 161.582 619.809 161.477 616.13 157.588C612.451 153.699 611.926 153.804 598.471 154.014C591.679 153.91 584.899 154.651 578.29 156.221C573.089 157.782 567.786 158.976 562.418 159.795C557.855 160.404 553.376 161.533 549.069 163.159C545.294 164.645 541.388 165.772 537.401 166.522C533.197 167.363 529.728 168.52 529.728 169.255C529.728 169.991 527.416 171.358 524.683 172.514C522.374 173.395 520.239 174.676 518.376 176.298C515.632 178.587 512.715 180.661 509.652 182.499C506.598 184.315 503.682 186.353 500.927 188.596C498.393 190.987 495.726 193.233 492.939 195.323C489.26 198.161 482.427 204.678 476.962 209.724C471.496 214.769 466.45 219.184 466.45 219.709C464.571 221.815 463.077 224.234 462.036 226.857C459.303 232.638 458.987 234.951 459.093 257.445C458.945 265.932 459.225 274.422 459.933 282.882C459.933 301.382 460.879 310.526 450.263 324.927C445.041 330.941 437.698 334.707 429.766 335.438C420.65 336.809 411.334 335.757 402.752 332.39C394.869 329.026 389.298 320.617 384.358 305.376C383.609 302.769 382.475 300.289 380.994 298.018C376.591 287.971 373.619 277.357 372.165 266.484C370.306 243.466 371.295 220.307 375.108 197.531C376.247 194.098 377.125 190.584 377.736 187.019C378.113 184.612 378.933 182.296 380.153 180.187C381.94 176.448 383.348 172.539 384.358 168.52C384.872 165.46 386.056 162.553 387.826 160.005C388.754 159.34 389.422 158.375 389.718 157.272C392.701 150.779 396.518 144.701 401.071 139.193C403.383 136.67 408.639 130.364 411.056 127.105C415.768 122.557 420.907 118.474 426.403 114.912C428.804 113.301 430.994 111.394 432.92 109.236C436.58 105.8 440.518 102.671 444.692 99.8812C447.727 97.8077 450.64 95.5616 453.416 93.154C457.831 89.1597 465.294 82.6427 470.234 78.9638C472.652 77.1769 476.856 73.7082 479.695 71.2906C481.553 69.428 483.77 67.9618 486.211 66.981C486.586 67.0115 486.957 66.8979 487.25 66.6634C487.543 66.4289 487.736 66.0913 487.788 65.7197C487.788 65.089 489.89 63.8276 492.518 62.9867C495.532 61.7636 498.307 60.0203 500.717 57.8362C502.16 56.3165 503.97 55.1942 505.973 54.5777C515.44 51.1226 524.388 46.3832 532.566 40.4927C535.683 38.5568 539.04 37.0373 542.552 35.9729C545.221 35.3613 547.752 34.2561 550.015 32.7144C554.219 28.615 569.986 27.5639 604.673 29.0354C633.789 30.2968 638.94 30.8224 644.3 33.2399C648.385 34.9249 652.654 36.1244 657.019 36.8138C660.398 37.2168 663.716 38.0286 666.9 39.2313C670.28 40.6823 673.803 41.7745 677.411 42.4898C680.47 43.1712 683.41 44.3049 686.135 45.8534C693.727 49.9316 701.77 53.1066 710.101 55.3135C712.82 55.8683 715.442 56.8248 717.879 58.1516C728.409 61.997 739.286 64.8131 750.359 66.5605C753.722 67.1912 767.807 68.4526 781.892 69.2935C795.978 70.1344 812.27 71.2906 818.577 72.0264C824.883 72.7622 850.11 73.9184 875.968 74.6542C932.098 76.4411 927.263 74.6542 928.524 98.9352C928.524 107.975 930.311 121.745 931.362 129.523C932.413 137.301 933.99 151.912 934.621 162.213C935.251 172.514 936.828 185.443 937.879 190.908C940.918 206.09 942.048 221.591 941.243 237.053C937.357 238.732 933.177 239.625 928.945 239.681C924.429 239.941 919.954 240.681 915.595 241.888C911.361 243.241 906.99 244.122 902.561 244.516C896.822 245.205 891.18 246.545 885.743 248.51C883.021 249.725 880.163 250.607 877.229 251.138C875.175 251.378 873.237 252.219 871.658 253.555C869.189 255.265 866.547 256.709 863.775 257.865C861.584 258.6 859.552 259.741 857.784 261.229C848.013 265.926 837.654 269.284 826.986 271.214C822.482 272.11 818.027 273.233 813.636 274.578C808.255 276.029 802.775 277.083 797.239 277.731C792.437 278.148 787.725 279.282 783.259 281.095C778.428 282.923 773.372 284.09 768.228 284.564C761.913 285.353 755.661 286.582 749.518 288.242C732.948 291.335 715.949 291.335 699.379 288.242C679.171 284.304 658.538 282.997 637.994 284.353C632.75 284.706 627.582 285.803 622.647 287.612C618.866 289.33 614.871 290.532 610.77 291.186C607.432 291.628 604.175 292.549 601.099 293.919C598.726 295.422 596.139 296.556 593.426 297.282C589.716 298.402 586.179 300.029 582.915 302.117C581.657 303.206 580.191 304.029 578.605 304.535C572.534 307.986 566.64 311.739 560.946 315.782C535.509 332.915 529.413 335.333 516.274 335.333C470.234 325.873 484.425 301.697 486.001 280.99Z" fill="#3470FF"/>
<path d="M322.024 968.954C319.397 968.428 310.672 966.746 302.579 965.38C296.709 964.667 290.908 963.472 285.235 961.806C282.661 960.626 279.988 959.677 277.247 958.968C268.644 956.676 260.324 953.432 252.44 949.298C250.386 947.951 248.158 946.891 245.818 946.144C243.516 945.323 241.353 944.153 239.406 942.675C237.263 941.193 234.881 940.091 232.364 939.417C230.156 939.417 228.474 938.051 228.474 937.42C224.894 934.513 220.933 932.108 216.702 930.272C210.29 927.329 204.088 924.281 203.037 923.545C196.018 919.106 188.634 915.273 180.964 912.088C178.119 911.165 175.345 910.041 172.66 908.724C170.459 907.52 168.082 906.669 165.617 906.201C161.953 905.338 158.419 903.995 155.106 902.207C151.792 900.422 148.258 899.08 144.595 898.213C143.215 898.079 141.92 897.487 140.916 896.531C126.531 889.439 111.147 884.583 95.2971 882.131C88.8176 881.254 82.2847 880.833 75.7462 880.869C58.5078 880.764 58.5078 880.344 58.5078 867.205C58.6327 861.158 59.0889 855.122 59.8743 849.125C60.6101 845.026 61.7663 830.941 62.6072 817.592C63.1824 807.025 64.3404 796.497 66.0759 786.058C67.8912 776.044 69.1544 765.938 69.8599 755.786C72.0673 727.195 72.4878 726.565 88.3597 721.519C100.973 717.63 113.376 716.474 151.427 715.948C184.958 715.948 200.304 716.894 208.818 721.204C211.427 722.684 214.219 723.814 217.122 724.567C218.068 724.567 219.54 725.829 220.276 727.3C220.581 727.959 221.033 728.539 221.598 728.994C222.163 729.45 222.826 729.77 223.534 729.928C225.101 730.321 226.5 731.205 227.528 732.451C229.42 734.323 231.673 735.789 234.151 736.76C236.354 737.609 238.439 738.74 240.352 740.124C243.44 741.814 246.723 743.12 250.128 744.013C253.97 745.066 257.729 746.401 261.375 748.007C265.288 749.493 269.394 750.413 273.568 750.74C277.926 751.144 282.226 752.025 286.391 753.368C318.254 758.338 350.429 761.043 382.674 761.462C415.785 762.618 433.969 766.192 449.946 774.496C459.827 779.646 462.244 784.061 462.244 797.41C462.425 803.237 461.68 809.056 460.037 814.649C456.441 822.987 450.344 830.002 442.588 834.725C440.276 835.986 438.279 837.458 438.279 838.089C438.279 838.719 436.807 839.771 434.915 840.611C430.395 842.714 430.5 847.233 434.915 848.39C446.908 849.151 458.947 848.159 470.653 845.447C475.267 843.845 479.97 842.512 484.738 841.452C488.433 840.747 491.985 839.433 495.25 837.563C496.596 836.381 498.296 835.678 500.085 835.566C503.315 834.954 506.434 833.856 509.335 832.308L524.261 825.16C528.34 823.415 532.217 821.23 535.823 818.643C539.191 816.1 542.701 813.748 546.334 811.6C549.294 809.976 552.139 808.15 554.848 806.135C557.048 804.493 559.367 803.017 561.786 801.72C564.729 800.143 569.144 797.515 572.297 795.834L581.547 790.263C583.988 788.766 586.308 787.079 588.484 785.217C589.501 784.155 590.765 783.361 592.163 782.905C593.959 782.13 595.571 780.983 596.893 779.541C599.225 777.499 601.761 775.703 604.461 774.18C606.564 773.024 608.35 771.658 608.35 770.922C608.35 770.186 609.822 769.45 611.609 769.03C614.15 768.12 616.528 766.807 618.651 765.141C620.986 763.281 623.525 761.694 626.22 760.411C629.875 758.613 633.389 756.54 636.731 754.209C640.001 751.997 643.531 750.196 647.242 748.848C649.504 748.345 651.623 747.339 653.444 745.905C664.836 741.763 676.767 739.285 688.866 738.547C706.736 736.025 730.911 740.755 739.425 749.059C744.471 753.684 744.471 753.789 743.945 762.303C743.42 770.817 740.792 776.072 729.65 784.902L721.451 791.629C719.454 793.311 714.619 796.674 700.429 806.029C696.75 808.552 692.861 811.285 691.704 812.231C686.356 817.324 680.346 821.673 673.835 825.16C670.813 826.518 668.014 828.326 665.532 830.521C661.499 834.395 657.138 837.912 652.498 841.032C645.35 845.972 639.148 850.597 638.728 851.543C636.224 853.839 633.554 855.947 630.739 857.85C621.218 864.77 612.288 872.47 604.041 880.869C599.203 885.818 593.723 890.095 587.748 893.588C585.318 894.179 583.03 895.251 581.021 896.741C578.606 898.422 575.994 899.799 573.243 900.841C571.058 901.597 568.975 902.621 567.041 903.889C559.194 908.34 551.045 912.239 542.655 915.556C542.152 915.673 541.677 915.892 541.261 916.2C540.846 916.507 540.497 916.896 540.238 917.343C538.618 919.054 536.537 920.259 534.246 920.812C532.152 921.372 530.188 922.336 528.465 923.65C526.769 925.1 524.853 926.271 522.789 927.119C520.373 928.181 518.053 929.447 515.852 930.903C513.757 932.297 511.497 933.427 509.124 934.266C506.771 935.149 504.516 936.277 502.397 937.63C499.779 939.225 496.995 940.529 494.093 941.519C491.756 942.128 489.595 943.281 487.787 944.883C487.787 945.514 485.684 946.354 483.162 946.88C480.373 947.478 477.729 948.621 475.383 950.244C473.275 951.895 470.838 953.078 468.236 953.712C466.124 954.205 464.126 955.097 462.349 956.34C459.356 958.306 456.23 960.062 452.994 961.596C445.408 964.918 437.205 966.601 428.924 966.536C420.04 967.128 411.197 968.216 402.435 969.794C375.684 972.013 348.802 972.189 322.024 970.32V968.954Z" fill="#3470FF"/>
</g>
<defs>
<clipPath id="clip0_2807_22839">
<rect width="1000" height="1000" rx="140" fill="white"/>
</clipPath>
</defs>
</svg>
