<svg width="304.9126423905481" height="304.915625" viewBox="0 0 395.30863315060867 395.3125" class="css-1j8o68f"><defs id="SvgjsDefs3130"></defs><g id="SvgjsG3131" featurekey="rootContainer" transform="matrix(1.934487341291051,0,0,1.934487341291051,0,0)" fill="#122d42"><path xmlns="http://www.w3.org/2000/svg" d="M102.174 199.588c53.8 0 97.413-43.613 97.413-97.413S155.974 4.762 102.174 4.762 4.761 48.375 4.761 102.175s43.614 97.413 97.413 97.413zm0-189.826c50.957 0 92.413 41.457 92.413 92.413s-41.456 92.413-92.413 92.413c-50.957 0-92.413-41.457-92.413-92.413S51.218 9.762 102.174 9.762z"></path><path xmlns="http://www.w3.org/2000/svg" d="M102.174 191.585c49.38 0 89.41-40.03 89.41-89.41s-40.03-89.41-89.41-89.41c-49.38 0-89.41 40.03-89.41 89.41s40.03 89.41 89.41 89.41zm0-176.82c48.198 0 87.41 39.212 87.41 87.41s-39.212 87.41-87.41 87.41c-48.198 0-87.41-39.212-87.41-87.41s39.212-87.41 87.41-87.41z"></path><path xmlns="http://www.w3.org/2000/svg" d="M102.174 204.35c56.339 0 102.174-45.835 102.174-102.175S158.513 0 102.174 0C45.835 0 0 45.835 0 102.175S45.835 204.35 102.174 204.35zm0-202.35c55.236 0 100.174 44.938 100.174 100.175S157.411 202.35 102.174 202.35C46.938 202.35 2 157.411 2 102.175S46.938 2 102.174 2z"></path></g><g id="SvgjsG3132" featurekey="symbolFeature-0" transform="matrix(1.8088472831819438,0,0,1.8088472831819438,106.86855487708887,46.33816783325082)" fill="#122d42"><path xmlns="http://www.w3.org/2000/svg" d="M97.073,48.017c-2.652-3.697-5.171-7.896-6.668-10.49l7.796-2.204c0.321-0.091,0.546-0.388,0.546-0.722v-3.449  c0-0.318-0.202-0.603-0.504-0.708l-2.737-0.954c-2.187-0.743-4.111-0.684-5.667,0.172c-1.119,0.617-1.848,1.542-2.307,2.345  c-2.964-5.888-9.012-16.768-13.22-16.768c-2.439,0-7.254-0.402-11.938-0.792c-4.797-0.399-9.756-0.813-12.375-0.813  c-2.613,0-7.568,0.413-12.4,0.815c-4.655,0.388-9.47,0.79-11.91,0.79c-4.189,0-10.352,11.118-13.222,16.787  c-0.457-0.806-1.188-1.737-2.325-2.363c-1.556-0.857-3.48-0.915-5.67-0.171l-2.734,0.952c-0.302,0.105-0.504,0.39-0.504,0.708v3.449  c0,0.333,0.224,0.63,0.546,0.722l7.813,2.209c-1.502,2.604-4.017,6.796-6.663,10.486c-3.032,4.22-2.409,10.427-1.806,16.431  c0.063,0.633,0.125,1.254,0.183,1.869c-0.044,0.096-0.072,0.199-0.072,0.313l0.003,14.396c-0.01,0.102-0.221,2.514,1.197,4.072  c0.765,0.842,1.829,1.27,3.162,1.27L18.8,86.365c0.029,0,2.779-0.047,3.112-3.695h56.093c0.332,3.65,3.086,3.697,3.115,3.697h13.199  c1.332,0,2.396-0.428,3.159-1.27c1.425-1.564,1.202-4,1.2-4V66.629c0-0.016-0.008-0.029-0.009-0.045  c0.063-0.699,0.134-1.412,0.207-2.141C99.48,58.441,100.104,52.236,97.073,48.017z M97.182,81.168  c0.002,0.018,0.153,1.863-0.815,2.924c-0.469,0.514-1.157,0.775-2.047,0.775H81.13c-0.063-0.002-1.381-0.082-1.619-2.246  c0.039-0.014,0.074-0.031,0.109-0.051c2.299,0.4,4.667,0.703,6.631,0.703c3.936,0,7.44-1.311,9.615-3.594  c0.519-0.543,0.951-1.137,1.314-1.771L97.182,81.168z M2.733,81.096v-3.348c0.379,0.693,0.838,1.342,1.398,1.93  c2.179,2.285,5.685,3.596,9.619,3.596c1.975,0,4.343-0.301,6.637-0.701c0.008,0.004,0.014,0.01,0.021,0.014  c-0.228,2.197-1.559,2.277-1.614,2.279H5.596c-0.893,0-1.581-0.26-2.05-0.773C2.643,83.102,2.709,81.443,2.733,81.096z   M29.354,80.535h41.293c0.313,0.086,1.203,0.33,2.43,0.635H26.935C28.156,80.865,29.043,80.621,29.354,80.535z M97.387,64.301  c-0.285,2.83-0.555,5.502-0.437,7.912c0.126,2.627-0.604,4.791-2.167,6.432c-1.896,1.988-5.005,3.129-8.532,3.129  c-5.559,0-14.899-2.6-15.294-2.711c-0.065-0.018-0.135-0.027-0.206-0.027h-41.5c-0.068,0-0.136,0.008-0.205,0.027  c-0.093,0.027-9.657,2.711-15.294,2.711c-3.525,0-6.636-1.143-8.531-3.133c-1.564-1.639-2.293-3.803-2.168-6.428  c0.116-2.42-0.151-5.09-0.436-7.918C2.043,58.57,1.448,52.65,4.148,48.891c1.051-1.464,2.08-3.006,3.035-4.498  c-0.053,1.221,0.107,2.538,0.679,3.761l-1.761-0.43c-0.247-0.059-0.508,0.01-0.694,0.187c-0.223,0.214-2.177,2.177-2.252,4.964  c-0.05,1.814,0.699,3.545,2.227,5.146c0.111,0.117,0.262,0.197,0.422,0.223L19.09,60.43c0.042,0.008,0.083,0.012,0.126,0.012  c0.176,0,0.348-0.063,0.484-0.176l1.264-1.066l5.299,0.15c1.974,2.492,4.894,4.656,10.021,4.656h7.774  c0.175,0,1.753-0.023,3.275-0.832c0.98-0.521,2.081-1.471,2.663-3.117c1.348,3.881,5.73,3.949,5.95,3.949h7.776  c5.129,0,8.049-2.164,10.021-4.656l5.261-0.148l1.265,1.063c0.135,0.115,0.307,0.178,0.483,0.178c0.043,0,0.084-0.004,0.121-0.01  l13.288-2.188c0.162-0.027,0.313-0.105,0.422-0.223c1.525-1.6,2.274-3.332,2.226-5.146c-0.077-2.88-2.165-4.883-2.253-4.966  c-0.182-0.171-0.44-0.244-0.693-0.184l-1.75,0.427c0.581-1.227,0.752-2.545,0.708-3.761c0.959,1.499,1.989,3.043,3.035,4.501  C98.556,52.652,97.962,58.57,97.387,64.301z M12.318,35.748c3.434-7.35,10.101-19.01,13.372-19.01c2.481,0,7.082-0.383,11.952-0.788  l0.082-0.007c4.775-0.398,9.714-0.81,12.277-0.81c2.541,0,7.44,0.408,12.179,0.802l0.177,0.015  c4.873,0.405,9.475,0.788,11.957,0.788c3.04,0,9.026,10.1,12.622,17.446c0.002,0.003,0.004,0.007,0.006,0.011  c0.268,0.548,0.524,1.083,0.764,1.595c0.021,0.038,1.122,2.053,2.763,4.794c0.085,0.203,2.11,5.145-0.477,8.087l-14.619,3.571  c-1.777-1.166-5.017-1.238-5.763-1.238H54.446c-2.729,0-3.922,2.279-4.446,4.15c-0.527-1.865-1.724-4.15-4.441-4.15H30.396  c-0.748,0-3.995,0.072-5.771,1.244l-14.65-3.579c-2.604-2.967-0.467-7.976-0.373-8.189c0-0.001,0-0.002,0-0.002  C11.22,37.767,12.295,35.791,12.318,35.748z M10.973,35.083c-0.081,0.148-0.298,0.541-0.616,1.106l-7.623-2.156v-2.348L4.96,30.91  c1.769-0.602,3.279-0.581,4.451,0.062c1.408,0.771,2.012,2.247,2.193,2.788C11.303,34.381,11.084,34.844,10.973,35.083z   M89.043,35.113c-0.156-0.334-0.38-0.808-0.657-1.38c0.192-0.564,0.794-1.995,2.18-2.758c1.173-0.646,2.688-0.667,4.453-0.066  l2.229,0.775v2.347l-7.607,2.152C89.331,35.636,89.122,35.258,89.043,35.113z M93.793,49.288c0.509,0.591,1.473,1.929,1.519,3.626  c0.036,1.338-0.518,2.648-1.646,3.893l-12.695,2.09l-1.222-1.029c-0.172-0.143-0.395-0.17-0.503-0.174l-4.411,0.123  c0.487-0.758,0.915-1.512,1.312-2.215c0.494-0.877,0.472-1.574,0.3-2.078L93.793,49.288z M74.979,53.893  c0.052,0.088,0.208,0.357-0.138,0.971c-1.917,3.404-4.303,7.643-11.117,7.643h-7.777c-0.497,0-4.852-0.139-4.853-4.918  c0.011-0.209,0.316-5.084,3.353-5.086h15.166C71.449,52.504,74.426,52.945,74.979,53.893z M25.166,54.863  c-0.346-0.613-0.188-0.881-0.137-0.971c0.558-0.957,3.475-1.389,5.367-1.389h15.162c3.014,0,3.342,4.854,3.354,5.047  c0,2.047-0.769,3.492-2.284,4.299c-1.201,0.639-2.434,0.658-2.586,0.658h-7.759C29.475,62.508,27.086,58.27,25.166,54.863z   M23.557,53.529c-0.17,0.506-0.19,1.201,0.303,2.072c0.396,0.703,0.825,1.459,1.313,2.217l-4.46-0.125  c-0.183,0-0.358,0.061-0.497,0.174l-1.218,1.027L6.301,56.807c-1.126-1.244-1.68-2.551-1.646-3.883  c0.043-1.691,1.011-3.041,1.521-3.636L23.557,53.529z"></path><path xmlns="http://www.w3.org/2000/svg" d="M14.636,36.063h70.102c0.412,0,0.749-0.335,0.752-0.749c0-0.185-0.066-0.359-0.188-0.496l-8.836-16.042  c-0.131-0.24-0.383-0.389-0.657-0.389H24.196c-0.264,0-0.512,0.141-0.646,0.369l-9.561,16.175c-0.137,0.231-0.138,0.52-0.005,0.752  C14.117,35.918,14.366,36.063,14.636,36.063z M15.95,34.563l8.674-14.675h50.742l8.083,14.675H15.95z"></path><path xmlns="http://www.w3.org/2000/svg" d="M77.066,69.527H23.426c-0.298,0-0.566,0.174-0.686,0.445c-0.12,0.271-0.069,0.588,0.13,0.809l6.263,6.895  c0.143,0.156,0.345,0.246,0.555,0.246H71.63c0.232,0,0.447-0.105,0.588-0.287l5.435-6.893c0.18-0.223,0.215-0.533,0.089-0.793  S77.356,69.527,77.066,69.527z M75.519,71.027l-4.252,5.395H30.02l-4.9-5.395H75.519z"></path><path xmlns="http://www.w3.org/2000/svg" d="M88.938,66.219c-4.809,1.178-9.746,2.617-9.773,2.627c-0.258,0.072-0.456,0.279-0.519,0.539  c-0.065,0.258,0.015,0.533,0.207,0.719l1,0.963l-1.838,4.893c-0.115,0.307-0.014,0.66,0.249,0.859l4.367,3.328  c0.104,0.08,0.228,0.131,0.36,0.15c0.007,0,0.729,0.092,1.832,0.092c3.218,0,8.853-0.758,10.445-5.844  c0.998-3.197,0.95-5.572-0.142-7.057C93.994,65.949,91.852,65.508,88.938,66.219z M84.823,78.889c-0.654,0-1.167-0.035-1.448-0.061  l-3.761-2.863l1.813-4.832c0.106-0.279,0.035-0.596-0.181-0.805l-0.417-0.402c1.658-0.471,5.077-1.422,8.463-2.25  c2.254-0.551,3.884-0.307,4.624,0.701c0.782,1.063,0.754,3.041-0.082,5.719C92.53,78.266,87.629,78.889,84.823,78.889z"></path><path xmlns="http://www.w3.org/2000/svg" d="M20.063,71.066l1-0.963c0.193-0.186,0.273-0.461,0.209-0.717c-0.063-0.26-0.261-0.467-0.517-0.541  c-0.042-0.014-4.995-1.457-9.774-2.627c-2.917-0.717-5.061-0.271-6.194,1.27c-1.092,1.486-1.139,3.859-0.139,7.055  c1.592,5.086,7.226,5.846,10.443,5.846c1.122,0,1.828-0.094,1.828-0.094c0.131-0.016,0.257-0.066,0.362-0.146l4.37-3.332  c0.265-0.203,0.364-0.549,0.247-0.859L20.063,71.066z M15.092,78.889c-2.806,0-7.707-0.623-9.012-4.793  c-0.838-2.676-0.867-4.654-0.085-5.717c0.484-0.66,1.322-0.996,2.489-0.996c0.63,0,1.349,0.098,2.138,0.293  c3.378,0.826,6.801,1.779,8.463,2.25l-0.418,0.402c-0.216,0.209-0.287,0.525-0.183,0.805l1.813,4.83l-3.758,2.865  C16.258,78.854,15.744,78.889,15.092,78.889z"></path></g><g id="SvgjsG3133" featurekey="nameFeature-0" transform="matrix(3.602874041184986,0,0,3.602874041184986,112.79474927406147,179.4566763546382)" fill="#122d42"><path d="M24.227 36.2388 c0.51188 1.4844 -0.21375 3.0598 -1.646 3.6028 c-0.3425 0.13652 -0.74968 0.15785 -0.9614 0.15785 c-1.1521 0 -2.1857 -0.71272 -2.5715 -1.7738 l-1.6911 -4.4864 l-8.2824 0 l-1.6938 4.494 c-0.4414 1.0803 -1.4621 1.7666 -2.6068 1.7666 c-0.33367 0 -0.6308 -0.047072 -0.935 -0.14836 c-1.4587 -0.55284 -2.1847 -2.1281 -1.6786 -3.5953 l8.3908 -22.364 c0.44548 -1.0894 1.5329 -1.7981 2.6457 -1.768 c1.1379 -0.043712 2.1931 0.66292 2.6376 1.7493 l2.5539 6.8052 c0.13144 0.35027 -0.046056 0.74052 -0.39633 0.87196 c-0.35062 0.13144 -0.74084 -0.046056 -0.87232 -0.39633 l-2.5464 -6.7868 c-0.22867 -0.55792 -0.75848 -0.91936 -1.3472 -0.88892 c-0.02 0.0010156 -0.04 0.00035156 -0.060312 0 c-0.55624 -0.026094 -1.1274 0.35602 -1.353 0.90784 l-8.378 22.329 c-0.25949 0.7534 0.11484 1.5786 0.85808 1.8605 c0.13789 0.045392 0.29442 0.069764 0.4804 0.069764 c0.59216 0 1.1203 -0.35606 1.3459 -0.90724 l1.8524 -4.9148 c0.099608 -0.26391 0.35199 -0.43872 0.63416 -0.43872 l9.2197 0 c0.28219 0 0.53488 0.1748 0.63416 0.43872 l1.8591 4.9328 c0.19445 0.53488 0.71612 0.8892 1.3008 0.8892 c0.22562 0 0.39434 -0.035234 0.46988 -0.065392 c0.7544 -0.2866 1.1288 -1.1115 0.8628 -1.8818 l-4.8052 -12.806 c-0.13144 -0.35027 0.046056 -0.74052 0.39633 -0.87196 c0.35062 -0.1318 0.74084 0.046056 0.87232 0.39633 z M11.152 26.159 c0.35027 0.1318 0.52708 0.52272 0.39531 0.873 l-0.44444 1.1789 l4.1884 0 l-2.0942 -5.558 l-0.65892 1.749 c-0.13211 0.34992 -0.52268 0.52608 -0.87296 0.39535 c-0.35027 -0.1318 -0.52748 -0.52304 -0.39535 -0.87296 l1.2927 -3.432 c0.099608 -0.26391 0.35199 -0.43872 0.63416 -0.43872 s0.53488 0.1748 0.63416 0.43872 l3.0732 8.1572 c0.078244 0.20801 0.049804 0.4414 -0.076876 0.62432 s-0.33469 0.29199 -0.55728 0.29199 l-6.1464 0 c-0.22258 0 -0.43092 -0.10906 -0.55728 -0.29199 s-0.15516 -0.41632 -0.076912 -0.62432 l0.78964 -2.0956 c0.1318 -0.35062 0.52272 -0.52748 0.873 -0.395 z M33.7812 17.652 l-1.2246 -0.000078124 l0 6.4608 l3.9889 0 c1.8005 0 3.2362 -1.4075 3.2684 -3.2046 c-0.031524 -1.8154 -1.4675 -3.2562 -3.2684 -3.2562 c-0.37398 0 -0.67752 -0.30352 -0.67752 -0.67752 s0.30352 -0.67752 0.67752 -0.67752 c2.5478 0 4.5788 2.0254 4.6232 4.612 c-0.045392 2.5668 -2.0762 4.5592 -4.6232 4.5592 l-4.6664 0 c-0.37398 0 -0.67752 -0.30352 -0.67752 -0.67752 l0 -7.8158 c0 -0.37398 0.30352 -0.67752 0.67752 -0.67752 l1.9021 0 c0.37398 0 0.67752 0.30352 0.67752 0.67752 s-0.30352 0.67752 -0.67752 0.67752 z M41.54600000000001 26.423000000000002 c0.27879 -0.25 0.70764 -0.22535 0.95628 0.054452 c0.24898 0.27914 0.22461 0.70736 -0.054532 0.95632 c-1.6233 1.4486 -3.7196 2.246 -5.9024 2.246 l-3.9889 0 l0 7.5557 c0 1.5244 -1.2568 2.7642 -2.8022 2.7642 c-1.5241 0 -2.7639 -1.2398 -2.7639 -2.7642 l0 -9.8071 c0 -0.37398 0.30352 -0.67752 0.67752 -0.67752 s0.67752 0.30352 0.67752 0.67752 l0 9.8071 c0 0.76392 0.645 1.4092 1.4089 1.4092 c0.79776 0 1.4472 -0.63212 1.4472 -1.4092 l0 -8.2332 c0 -0.37398 0.30352 -0.67752 0.67752 -0.67752 l4.6664 0 c1.8496 0 3.6254 -0.67548 5.0004 -1.9018 z M36.546 12.085999999999999 c4.8716 0 8.8348 3.9632 8.8348 8.8348 c0 1.2057 -0.24426 2.3744 -0.72564 3.4743 c-0.15008 0.34215 -0.55016 0.49868 -0.89232 0.34894 c-0.3425 -0.15008 -0.49904 -0.54948 -0.34894 -0.89232 c0.40616 -0.92756 0.6118 -1.9137 0.6118 -2.931 c0 -4.1244 -3.3554 -7.48 -7.48 -7.48 l-6.7914 0 c-0.77676 0 -1.4089 0.63212 -1.4089 1.4092 l0 9.9406 c0 0.37398 -0.30352 0.67752 -0.67752 0.67752 s-0.67752 -0.30352 -0.67752 -0.67752 l0 -9.9406 c0 -1.5244 1.2398 -2.7642 2.7639 -2.7642 l6.7914 0 z"></path></g></svg>