<?xml version="1.0" encoding="utf-8"?>
<svg viewBox="4.3839 4.29 204 150" xmlns="http://www.w3.org/2000/svg">
  <g id="SvgjsG7681" featurekey="5TMTKC-0" transform="matrix(2.0658180713653564, 0, 0, 2.0622808933258057, 3.091765019052218, -23.827103371235836)" fill="#3470FF">
    <path xmlns="http://www.w3.org/2000/svg" d="M97.073,48.017c-2.652-3.697-5.171-7.896-6.668-10.49l7.796-2.204c0.321-0.091,0.546-0.388,0.546-0.722v-3.449  c0-0.318-0.202-0.603-0.504-0.708l-2.737-0.954c-2.187-0.743-4.111-0.684-5.667,0.172c-1.119,0.617-1.848,1.542-2.307,2.345  c-2.964-5.888-9.012-16.768-13.22-16.768c-2.439,0-7.254-0.402-11.938-0.792c-4.797-0.399-9.756-0.813-12.375-0.813  c-2.613,0-7.568,0.413-12.4,0.815c-4.655,0.388-9.47,0.79-11.91,0.79c-4.189,0-10.352,11.118-13.222,16.787  c-0.457-0.806-1.188-1.737-2.325-2.363c-1.556-0.857-3.48-0.915-5.67-0.171l-2.734,0.952c-0.302,0.105-0.504,0.39-0.504,0.708v3.449  c0,0.333,0.224,0.63,0.546,0.722l7.813,2.209c-1.502,2.604-4.017,6.796-6.663,10.486c-3.032,4.22-2.409,10.427-1.806,16.431  c0.063,0.633,0.125,1.254,0.183,1.869c-0.044,0.096-0.072,0.199-0.072,0.313l0.003,14.396c-0.01,0.102-0.221,2.514,1.197,4.072  c0.765,0.842,1.829,1.27,3.162,1.27L18.8,86.365c0.029,0,2.779-0.047,3.112-3.695h56.093c0.332,3.65,3.086,3.697,3.115,3.697h13.199  c1.332,0,2.396-0.428,3.159-1.27c1.425-1.564,1.202-4,1.2-4V66.629c0-0.016-0.008-0.029-0.009-0.045  c0.063-0.699,0.134-1.412,0.207-2.141C99.48,58.441,100.104,52.236,97.073,48.017z M97.182,81.168  c0.002,0.018,0.153,1.863-0.815,2.924c-0.469,0.514-1.157,0.775-2.047,0.775H81.13c-0.063-0.002-1.381-0.082-1.619-2.246  c0.039-0.014,0.074-0.031,0.109-0.051c2.299,0.4,4.667,0.703,6.631,0.703c3.936,0,7.44-1.311,9.615-3.594  c0.519-0.543,0.951-1.137,1.314-1.771L97.182,81.168z M2.733,81.096v-3.348c0.379,0.693,0.838,1.342,1.398,1.93  c2.179,2.285,5.685,3.596,9.619,3.596c1.975,0,4.343-0.301,6.637-0.701c0.008,0.004,0.014,0.01,0.021,0.014  c-0.228,2.197-1.559,2.277-1.614,2.279H5.596c-0.893,0-1.581-0.26-2.05-0.773C2.643,83.102,2.709,81.443,2.733,81.096z   M29.354,80.535h41.293c0.313,0.086,1.203,0.33,2.43,0.635H26.935C28.156,80.865,29.043,80.621,29.354,80.535z M97.387,64.301  c-0.285,2.83-0.555,5.502-0.437,7.912c0.126,2.627-0.604,4.791-2.167,6.432c-1.896,1.988-5.005,3.129-8.532,3.129  c-5.559,0-14.899-2.6-15.294-2.711c-0.065-0.018-0.135-0.027-0.206-0.027h-41.5c-0.068,0-0.136,0.008-0.205,0.027  c-0.093,0.027-9.657,2.711-15.294,2.711c-3.525,0-6.636-1.143-8.531-3.133c-1.564-1.639-2.293-3.803-2.168-6.428  c0.116-2.42-0.151-5.09-0.436-7.918C2.043,58.57,1.448,52.65,4.148,48.891c1.051-1.464,2.08-3.006,3.035-4.498  c-0.053,1.221,0.107,2.538,0.679,3.761l-1.761-0.43c-0.247-0.059-0.508,0.01-0.694,0.187c-0.223,0.214-2.177,2.177-2.252,4.964  c-0.05,1.814,0.699,3.545,2.227,5.146c0.111,0.117,0.262,0.197,0.422,0.223L19.09,60.43c0.042,0.008,0.083,0.012,0.126,0.012  c0.176,0,0.348-0.063,0.484-0.176l1.264-1.066l5.299,0.15c1.974,2.492,4.894,4.656,10.021,4.656h7.774  c0.175,0,1.753-0.023,3.275-0.832c0.98-0.521,2.081-1.471,2.663-3.117c1.348,3.881,5.73,3.949,5.95,3.949h7.776  c5.129,0,8.049-2.164,10.021-4.656l5.261-0.148l1.265,1.063c0.135,0.115,0.307,0.178,0.483,0.178c0.043,0,0.084-0.004,0.121-0.01  l13.288-2.188c0.162-0.027,0.313-0.105,0.422-0.223c1.525-1.6,2.274-3.332,2.226-5.146c-0.077-2.88-2.165-4.883-2.253-4.966  c-0.182-0.171-0.44-0.244-0.693-0.184l-1.75,0.427c0.581-1.227,0.752-2.545,0.708-3.761c0.959,1.499,1.989,3.043,3.035,4.501  C98.556,52.652,97.962,58.57,97.387,64.301z M12.318,35.748c3.434-7.35,10.101-19.01,13.372-19.01c2.481,0,7.082-0.383,11.952-0.788  l0.082-0.007c4.775-0.398,9.714-0.81,12.277-0.81c2.541,0,7.44,0.408,12.179,0.802l0.177,0.015  c4.873,0.405,9.475,0.788,11.957,0.788c3.04,0,9.026,10.1,12.622,17.446c0.002,0.003,0.004,0.007,0.006,0.011  c0.268,0.548,0.524,1.083,0.764,1.595c0.021,0.038,1.122,2.053,2.763,4.794c0.085,0.203,2.11,5.145-0.477,8.087l-14.619,3.571  c-1.777-1.166-5.017-1.238-5.763-1.238H54.446c-2.729,0-3.922,2.279-4.446,4.15c-0.527-1.865-1.724-4.15-4.441-4.15H30.396  c-0.748,0-3.995,0.072-5.771,1.244l-14.65-3.579c-2.604-2.967-0.467-7.976-0.373-8.189c0-0.001,0-0.002,0-0.002  C11.22,37.767,12.295,35.791,12.318,35.748z M10.973,35.083c-0.081,0.148-0.298,0.541-0.616,1.106l-7.623-2.156v-2.348L4.96,30.91  c1.769-0.602,3.279-0.581,4.451,0.062c1.408,0.771,2.012,2.247,2.193,2.788C11.303,34.381,11.084,34.844,10.973,35.083z   M89.043,35.113c-0.156-0.334-0.38-0.808-0.657-1.38c0.192-0.564,0.794-1.995,2.18-2.758c1.173-0.646,2.688-0.667,4.453-0.066  l2.229,0.775v2.347l-7.607,2.152C89.331,35.636,89.122,35.258,89.043,35.113z M93.793,49.288c0.509,0.591,1.473,1.929,1.519,3.626  c0.036,1.338-0.518,2.648-1.646,3.893l-12.695,2.09l-1.222-1.029c-0.172-0.143-0.395-0.17-0.503-0.174l-4.411,0.123  c0.487-0.758,0.915-1.512,1.312-2.215c0.494-0.877,0.472-1.574,0.3-2.078L93.793,49.288z M74.979,53.893  c0.052,0.088,0.208,0.357-0.138,0.971c-1.917,3.404-4.303,7.643-11.117,7.643h-7.777c-0.497,0-4.852-0.139-4.853-4.918  c0.011-0.209,0.316-5.084,3.353-5.086h15.166C71.449,52.504,74.426,52.945,74.979,53.893z M25.166,54.863  c-0.346-0.613-0.188-0.881-0.137-0.971c0.558-0.957,3.475-1.389,5.367-1.389h15.162c3.014,0,3.342,4.854,3.354,5.047  c0,2.047-0.769,3.492-2.284,4.299c-1.201,0.639-2.434,0.658-2.586,0.658h-7.759C29.475,62.508,27.086,58.27,25.166,54.863z   M23.557,53.529c-0.17,0.506-0.19,1.201,0.303,2.072c0.396,0.703,0.825,1.459,1.313,2.217l-4.46-0.125  c-0.183,0-0.358,0.061-0.497,0.174l-1.218,1.027L6.301,56.807c-1.126-1.244-1.68-2.551-1.646-3.883  c0.043-1.691,1.011-3.041,1.521-3.636L23.557,53.529z"/>
    <path xmlns="http://www.w3.org/2000/svg" d="M14.636,36.063h70.102c0.412,0,0.749-0.335,0.752-0.749c0-0.185-0.066-0.359-0.188-0.496l-8.836-16.042  c-0.131-0.24-0.383-0.389-0.657-0.389H24.196c-0.264,0-0.512,0.141-0.646,0.369l-9.561,16.175c-0.137,0.231-0.138,0.52-0.005,0.752  C14.117,35.918,14.366,36.063,14.636,36.063z M15.95,34.563l8.674-14.675h50.742l8.083,14.675H15.95z"/>
    <path xmlns="http://www.w3.org/2000/svg" d="M77.066,69.527H23.426c-0.298,0-0.566,0.174-0.686,0.445c-0.12,0.271-0.069,0.588,0.13,0.809l6.263,6.895  c0.143,0.156,0.345,0.246,0.555,0.246H71.63c0.232,0,0.447-0.105,0.588-0.287l5.435-6.893c0.18-0.223,0.215-0.533,0.089-0.793  S77.356,69.527,77.066,69.527z M75.519,71.027l-4.252,5.395H30.02l-4.9-5.395H75.519z"/>
    <path xmlns="http://www.w3.org/2000/svg" d="M88.938,66.219c-4.809,1.178-9.746,2.617-9.773,2.627c-0.258,0.072-0.456,0.279-0.519,0.539  c-0.065,0.258,0.015,0.533,0.207,0.719l1,0.963l-1.838,4.893c-0.115,0.307-0.014,0.66,0.249,0.859l4.367,3.328  c0.104,0.08,0.228,0.131,0.36,0.15c0.007,0,0.729,0.092,1.832,0.092c3.218,0,8.853-0.758,10.445-5.844  c0.998-3.197,0.95-5.572-0.142-7.057C93.994,65.949,91.852,65.508,88.938,66.219z M84.823,78.889c-0.654,0-1.167-0.035-1.448-0.061  l-3.761-2.863l1.813-4.832c0.106-0.279,0.035-0.596-0.181-0.805l-0.417-0.402c1.658-0.471,5.077-1.422,8.463-2.25  c2.254-0.551,3.884-0.307,4.624,0.701c0.782,1.063,0.754,3.041-0.082,5.719C92.53,78.266,87.629,78.889,84.823,78.889z"/>
    <path xmlns="http://www.w3.org/2000/svg" d="M20.063,71.066l1-0.963c0.193-0.186,0.273-0.461,0.209-0.717c-0.063-0.26-0.261-0.467-0.517-0.541  c-0.042-0.014-4.995-1.457-9.774-2.627c-2.917-0.717-5.061-0.271-6.194,1.27c-1.092,1.486-1.139,3.859-0.139,7.055  c1.592,5.086,7.226,5.846,10.443,5.846c1.122,0,1.828-0.094,1.828-0.094c0.131-0.016,0.257-0.066,0.362-0.146l4.37-3.332  c0.265-0.203,0.364-0.549,0.247-0.859L20.063,71.066z M15.092,78.889c-2.806,0-7.707-0.623-9.012-4.793  c-0.838-2.676-0.867-4.654-0.085-5.717c0.484-0.66,1.322-0.996,2.489-0.996c0.63,0,1.349,0.098,2.138,0.293  c3.378,0.826,6.801,1.779,8.463,2.25l-0.418,0.402c-0.216,0.209-0.287,0.525-0.183,0.805l1.813,4.83l-3.758,2.865  C16.258,78.854,15.744,78.889,15.092,78.889z"/>
  </g>
  <g id="SvgjsG7682" featurekey="nameLeftFeature-0" transform="matrix(1.150025963783264, 0, 0, 1.150025963783264, 94.04537481204784, 50.01778179460106)" fill="#ffffc2" style="">
    <path d="M12.114 18.1194 c0.25594 0.74222 -0.10688 1.5299 -0.823 1.8014 c-0.17125 0.068262 -0.37484 0.078926 -0.4807 0.078926 c-0.57606 0 -1.0928 -0.35636 -1.2858 -0.88688 l-0.84554 -2.2432 l-4.1412 0 l-0.8469 2.247 c-0.2207 0.54016 -0.73104 0.88332 -1.3034 0.88332 c-0.16684 0 -0.3154 -0.023536 -0.4675 -0.07418 c-0.72936 -0.27642 -1.0923 -1.064 -0.8393 -1.7976 l4.1954 -11.182 c0.22274 -0.54472 0.76644 -0.89906 1.3229 -0.88398 c0.56894 -0.021856 1.0966 0.33146 1.3188 0.87466 l1.277 3.4026 c0.065722 0.17514 -0.023028 0.37026 -0.19816 0.43598 c-0.17531 0.065722 -0.37042 -0.023028 -0.43616 -0.19816 l-1.2732 -3.3934 c-0.11434 -0.27896 -0.37924 -0.45968 -0.67362 -0.44446 c-0.01 0.00050782 -0.02 0.00017578 -0.030156 0 c-0.27812 -0.013047 -0.5637 0.17801 -0.6765 0.45392 l-4.189 11.164 c-0.12975 0.3767 0.057422 0.78932 0.42904 0.93024 c0.068946 0.022696 0.14721 0.034882 0.2402 0.034882 c0.29608 0 0.56014 -0.17803 0.67296 -0.45362 l0.92618 -2.4574 c0.049804 -0.13195 0.176 -0.21936 0.31708 -0.21936 l4.6098 0 c0.14109 0 0.26744 0.087402 0.31708 0.21936 l0.92954 2.4664 c0.097226 0.26744 0.35806 0.4446 0.6504 0.4446 c0.11281 0 0.19717 -0.017617 0.23494 -0.032696 c0.3772 -0.1433 0.56438 -0.55574 0.4314 -0.94092 l-2.4026 -6.403 c-0.065722 -0.17514 0.023028 -0.37026 0.19816 -0.43598 c0.17531 -0.065898 0.37042 0.023028 0.43616 0.19816 z M5.576 13.0796 c0.17514 0.065898 0.26354 0.26136 0.19766 0.4365 l-0.22222 0.58944 l2.0942 0 l-1.0471 -2.779 l-0.32946 0.87452 c-0.066054 0.17496 -0.26134 0.26304 -0.43648 0.19768 c-0.17514 -0.065898 -0.26374 -0.26152 -0.19768 -0.43648 l0.64634 -1.716 c0.049804 -0.13195 0.176 -0.21936 0.31708 -0.21936 s0.26744 0.087402 0.31708 0.21936 l1.5366 4.0786 c0.039122 0.104 0.024902 0.2207 -0.038438 0.31216 s-0.16734 0.146 -0.27864 0.146 l-3.0732 0 c-0.11129 0 -0.21546 -0.054532 -0.27864 -0.146 s-0.077578 -0.20816 -0.038456 -0.31216 l0.39482 -1.0478 c0.065898 -0.17531 0.26136 -0.26374 0.4365 -0.1975 z"/>
  </g>
  <g id="SvgjsG7683" featurekey="nameRightFeature-0" transform="matrix(1.2501590251922607, 0, 0, 1.2501590251922607, 108.55581225621137, 48.76778175734819)" fill="#ffffc2" style="">
    <path d="M4.3956 8.826 l-0.6123 -0.000039062 l0 3.2304 l1.9945 0 c0.90026 0 1.6181 -0.70376 1.6342 -1.6023 c-0.015762 -0.90772 -0.73376 -1.6281 -1.6342 -1.6281 c-0.18699 0 -0.33876 -0.15176 -0.33876 -0.33876 s0.15176 -0.33876 0.33876 -0.33876 c1.2739 0 2.2894 1.0127 2.3116 2.306 c-0.022696 1.2834 -1.0381 2.2796 -2.3116 2.2796 l-2.3332 0 c-0.18699 0 -0.33876 -0.15176 -0.33876 -0.33876 l0 -3.9079 c0 -0.18699 0.15176 -0.33876 0.33876 -0.33876 l0.95107 0 c0.18699 0 0.33876 0.15176 0.33876 0.33876 s-0.15176 0.33876 -0.33876 0.33876 z M8.278 13.211400000000001 c0.13939 -0.125 0.35382 -0.11268 0.47814 0.027226 c0.12449 0.13957 0.1123 0.35368 -0.027266 0.47816 c-0.81166 0.72428 -1.8598 1.123 -2.9512 1.123 l-1.9945 0 l0 3.7779 c0 0.7622 -0.6284 1.3821 -1.4011 1.3821 c-0.76204 0 -1.382 -0.61992 -1.382 -1.3821 l0 -4.9036 c0 -0.18699 0.15176 -0.33876 0.33876 -0.33876 s0.33876 0.15176 0.33876 0.33876 l0 4.9036 c0 0.38196 0.3225 0.70462 0.70446 0.70462 c0.39888 0 0.7236 -0.31606 0.7236 -0.7046 l0 -4.1166 c0 -0.18699 0.15176 -0.33876 0.33876 -0.33876 l2.3332 0 c0.92482 0 1.8127 -0.33774 2.5002 -0.9509 z M5.7778 6.042999999999999 c2.4358 0 4.4174 1.9816 4.4174 4.4174 c0 0.60284 -0.12213 1.1872 -0.36282 1.7372 c-0.075038 0.17107 -0.27508 0.24934 -0.44616 0.17447 c-0.17125 -0.075038 -0.24952 -0.27474 -0.17447 -0.44616 c0.20308 -0.46378 0.3059 -0.95684 0.3059 -1.4655 c0 -2.0622 -1.6777 -3.74 -3.74 -3.74 l-3.3957 0 c-0.38838 0 -0.70444 0.31606 -0.70444 0.7046 l0 4.9703 c0 0.18699 -0.15176 0.33876 -0.33876 0.33876 s-0.33876 -0.15176 -0.33876 -0.33876 l0 -4.9703 c0 -0.7622 0.61992 -1.3821 1.382 -1.3821 l3.3957 0 z"/>
  </g>
</svg>